name analog
datacolumns 19
datarows 50
range 0.3565 0.381
endheader
time	ground_force_vx	ground_force_vy	ground_force_vz	ground_force_px	ground_force_py	ground_force_pz	l_ground_force_vx	l_ground_force_vy	l_ground_force_vz	l_ground_force_px	l_ground_force_py	l_ground_force_pz	ground_torque_x	ground_torque_y	ground_torque_z	l_ground_torque_x	l_ground_torque_y	l_ground_torque_z
0.3565	-0.0	-0.0	-0.0	1.498334527015686	-14.1535062789917	-740.8953247070312	-0.0	-0.0	-0.0	-0.0	-0.0	-0.0	-0.0	-0.0	-0.0	-0.0	-0.0	-0.0
0.357	-0.0	-0.0	-0.0	1.1407029628753662	-12.334627151489258	-741.3966674804688	-0.0	-0.0	-0.0	-0.0	-0.0	-0.0	-0.0	-0.0	-0.0	-0.0	-0.0	-0.0
0.3575	-0.0	-0.0	-0.0	0.232084035873413	-11.158716201782228	-741.6806030273438	-0.0	-0.0	-0.0	-0.0	-0.0	-0.0	-0.0	-0.0	-0.0	-0.0	-0.0	-0.0
0.358	-0.0	-0.0	-0.0	-0.9462185502052308	-9.983094215393066	-739.7711181640625	-0.0	-0.0	-0.0	-0.0	-0.0	-0.0	-0.0	-0.0	-0.0	-0.0	-0.0	-0.0
0.3585	-0.0	-0.0	-0.0	-0.945690393447876	-9.46576690673828	-739.0634155273438	-0.0	-0.0	-0.0	-0.0	-0.0	-0.0	-0.0	-0.0	-0.0	-0.0	-0.0	-0.0
0.359	-0.0	-0.0	-0.0	-1.37380850315094	-9.572404861450195	-741.3240356445312	-0.0	-0.0	-0.0	-0.0	-0.0	-0.0	-0.0	-0.0	-0.0	-0.0	-0.0	-0.0
0.3595	-0.0	-0.0	-0.0	-0.874301552772522	-9.2695894241333	-743.090576171875	-0.0	-0.0	-0.0	-0.0	-0.0	-0.0	-0.0	-0.0	-0.0	-0.0	-0.0	-0.0
0.36	-0.0	-0.0	-0.0	-1.3201825618743896	-9.162693977355955	-744.8573608398438	-0.0	-0.0	-0.0	-0.0	-0.0	-0.0	-0.0	-0.0	-0.0	-0.0	-0.0	-0.0
0.3605	-0.0	-0.0	-0.0	-1.766170859336853	-8.93040657043457	-744.6461791992188	-0.0	-0.0	-0.0	-0.0	-0.0	-0.0	-0.0	-0.0	-0.0	-0.0	-0.0	-0.0
0.361	-0.0	-0.0	-0.0	-1.909209489822388	-8.289127349853516	-745.56494140625	-0.0	-0.0	-0.0	-0.0	-0.0	-0.0	-0.0	-0.0	-0.0	-0.0	-0.0	-0.0
0.3615	-0.0	-0.0	-0.0	-1.6416168212890625	-7.45330810546875	-748.3187866210938	-0.0	-0.0	-0.0	-0.0	-0.0	-0.0	-0.0	-0.0	-0.0	-0.0	-0.0	-0.0
0.362	-0.0	-0.0	-0.0	-1.83841335773468	-7.362847328186035	-750.5733032226562	-0.0	-0.0	-0.0	-0.0	-0.0	-0.0	-0.0	-0.0	-0.0	-0.0	-0.0	-0.0
0.3625	-0.0	-0.0	-0.0	-1.6057891845703125	-7.594533920288086	-751.144775390625	-0.0	-0.0	-0.0	-0.0	-0.0	-0.0	-0.0	-0.0	-0.0	-0.0	-0.0	-0.0
0.363	-0.0	-0.0	-0.0	-1.9440484046936035	-7.1316657066345215	-753.9705200195312	-0.0	-0.0	-0.0	-0.0	-0.0	-0.0	-0.0	-0.0	-0.0	-0.0	-0.0	-0.0
0.3635	-0.0	-0.0	-0.0	-2.069138526916504	-7.291411876678467	-753.7598266601562	-0.0	-0.0	-0.0	-0.0	-0.0	-0.0	-0.0	-0.0	-0.0	-0.0	-0.0	-0.0
0.364	-0.0	-0.0	-0.0	-1.7341102361679075	-7.186711311340332	-754.9500732421875	-0.0	-0.0	-0.0	-0.0	-0.0	-0.0	-0.0	-0.0	-0.0	-0.0	-0.0	-0.0
0.3645	-0.0	-0.0	-0.0	-1.6400721073150637	-6.686530113220215	-755.2413940429688	-0.0	-0.0	-0.0	-0.0	-0.0	-0.0	-0.0	-0.0	-0.0	-0.0	-0.0	-0.0
0.365	-0.0	-0.0	-0.0	-1.4444472789764404	-6.362386226654053	-755.0235595703125	-0.0	-0.0	-0.0	-0.0	-0.0	-0.0	-0.0	-0.0	-0.0	-0.0	-0.0	-0.0
0.3655	-0.0	-0.0	-0.0	-0.8199064135551453	-5.419958114624023	-755.60302734375	-0.0	-0.0	-0.0	-0.0	-0.0	-0.0	-0.0	-0.0	-0.0	-0.0	-0.0	-0.0
0.366	-0.0	-0.0	-0.0	-0.6967499256134033	-4.299714088439941	-754.392333984375	-0.0	-0.0	-0.0	-0.0	-0.0	-0.0	-0.0	-0.0	-0.0	-0.0	-0.0	-0.0
0.3665	-0.0	-0.0	-0.0	-0.0530334860086441	-3.2448389530181885	-751.98681640625	-0.0	-0.0	-0.0	-0.0	-0.0	-0.0	-0.0	-0.0	-0.0	-0.0	-0.0	-0.0
0.367	-0.0	-0.0	-0.0	0.0361988209187984	-1.9298441410064695	-753.332763671875	-0.0	-0.0	-0.0	-0.0	-0.0	-0.0	-0.0	-0.0	-0.0	-0.0	-0.0	-0.0
0.3675	-0.0	-0.0	-0.0	0.356842041015625	-1.2088556289672852	-749.0393676757812	-0.0	-0.0	-0.0	-0.0	-0.0	-0.0	-0.0	-0.0	-0.0	-0.0	-0.0	-0.0
0.368	-0.0	-0.0	-0.0	0.789198637008667	-0.1087318211793899	-747.1968994140625	-0.0	-0.0	-0.0	-0.0	-0.0	-0.0	-0.0	-0.0	-0.0	-0.0	-0.0	-0.0
0.3685	-0.0	-0.0	-0.0	1.2821582555770874	-0.208353579044342	-747.7598876953125	-0.0	-0.0	-0.0	-0.0	-0.0	-0.0	-0.0	-0.0	-0.0	-0.0	-0.0	-0.0
0.369	-0.0	-0.0	-0.0	2.4252116680145264	0.0825652480125427	-745.8505859375	-0.0	-0.0	-0.0	-0.0	-0.0	-0.0	-0.0	-0.0	-0.0	-0.0	-0.0	-0.0
0.3695	-0.0	-0.0	-0.0	3.694010972976685	-0.0259175896644592	-743.3272705078125	-0.0	-0.0	-0.0	-0.0	-0.0	-0.0	-0.0	-0.0	-0.0	-0.0	-0.0	-0.0
0.37	-0.0	-0.0	-0.0	4.516939163208008	0.5347824096679688	-743.8618774414062	-0.0	-0.0	-0.0	-0.0	-0.0	-0.0	-0.0	-0.0	-0.0	-0.0	-0.0	-0.0
0.3705	-0.0	-0.0	-0.0	4.943022727966309	0.4456520080566406	-745.43359375	-0.0	-0.0	-0.0	-0.0	-0.0	-0.0	-0.0	-0.0	-0.0	-0.0	-0.0	-0.0
0.371	-0.0	-0.0	-0.0	5.835166931152344	0.6239128112792969	-744.0699462890625	-0.0	-0.0	-0.0	-0.0	-0.0	-0.0	-0.0	-0.0	-0.0	-0.0	-0.0	-0.0
0.3715	-0.0	-0.0	-0.0	6.0298051834106445	0.6280357837677002	-745.2259521484375	-0.0	-0.0	-0.0	-0.0	-0.0	-0.0	-0.0	-0.0	-0.0	-0.0	-0.0	-0.0
0.372	-0.0	-0.0	-0.0	6.066314697265625	0.6239128112792969	-746.3330078125	-0.0	-0.0	-0.0	-0.0	-0.0	-0.0	-0.0	-0.0	-0.0	-0.0	-0.0	-0.0
0.3725	-0.0	-0.0	-0.0	5.949547290802002	0.8387280106544495	-745.0648193359375	-0.0	-0.0	-0.0	-0.0	-0.0	-0.0	-0.0	-0.0	-0.0	-0.0	-0.0	-0.0
0.373	-0.0	-0.0	-0.0	5.794012546539307	1.8923643827438357	-743.6072387695312	-0.0	-0.0	-0.0	-0.0	-0.0	-0.0	-0.0	-0.0	-0.0	-0.0	-0.0	-0.0
0.3735	-0.0	-0.0	-0.0	5.105743885040283	3.0670526027679443	-743.5067749023438	-0.0	-0.0	-0.0	-0.0	-0.0	-0.0	-0.0	-0.0	-0.0	-0.0	-0.0	-0.0
0.374	-0.0	-0.0	-0.0	4.5231099128723145	4.5298357009887695	-739.7239990234375	-0.0	-0.0	-0.0	-0.0	-0.0	-0.0	-0.0	-0.0	-0.0	-0.0	-0.0	-0.0
0.3745	-0.0	-0.0	-0.0	4.350337028503418	5.138088703155518	-738.1875	-0.0	-0.0	-0.0	-0.0	-0.0	-0.0	-0.0	-0.0	-0.0	-0.0	-0.0	-0.0
0.375	-0.0	-0.0	-0.0	3.584120273590088	5.8038105964660645	-737.294189453125	-0.0	-0.0	-0.0	-0.0	-0.0	-0.0	-0.0	-0.0	-0.0	-0.0	-0.0	-0.0
0.3755	-0.0	-0.0	-0.0	3.799257755279541	6.386172771453857	-733.3253173828125	-0.0	-0.0	-0.0	-0.0	-0.0	-0.0	-0.0	-0.0	-0.0	-0.0	-0.0	-0.0
0.376	-0.0	-0.0	-0.0	3.867140769958496	6.684780120849609	-733.5159301757812	-0.0	-0.0	-0.0	-0.0	-0.0	-0.0	-0.0	-0.0	-0.0	-0.0	-0.0	-0.0
0.3765	-0.0	-0.0	-0.0	3.3007888793945312	7.109097957611084	-732.2879028320312	-0.0	-0.0	-0.0	-0.0	-0.0	-0.0	-0.0	-0.0	-0.0	-0.0	-0.0	-0.0
0.377	-0.0	-0.0	-0.0	2.6239981651306152	6.334299564361572	-731.20458984375	-0.0	-0.0	-0.0	-0.0	-0.0	-0.0	-0.0	-0.0	-0.0	-0.0	-0.0	-0.0
0.3775	-0.0	-0.0	-0.0	2.8456311225891118	6.7063469886779785	-730.7900390625	-0.0	-0.0	-0.0	-0.0	-0.0	-0.0	-0.0	-0.0	-0.0	-0.0	-0.0	-0.0
0.378	-0.0	-0.0	-0.0	0.957095980644226	7.182637691497803	-730.8756103515625	-0.0	-0.0	-0.0	-0.0	-0.0	-0.0	-0.0	-0.0	-0.0	-0.0	-0.0	-0.0
0.3785	-0.0	-0.0	-0.0	-0.685340404510498	7.784750938415527	-729.6094970703125	-0.0	-0.0	-0.0	-0.0	-0.0	-0.0	-0.0	-0.0	-0.0	-0.0	-0.0	-0.0
0.379	-0.0	-0.0	-0.0	-1.3751933574676514	8.400135040283203	-730.2027587890625	-0.0	-0.0	-0.0	-0.0	-0.0	-0.0	-0.0	-0.0	-0.0	-0.0	-0.0	-0.0
0.3795	-0.0	-0.0	-0.0	-1.999692440032959	8.854058265686035	-729.0775756835938	-0.0	-0.0	-0.0	-0.0	-0.0	-0.0	-0.0	-0.0	-0.0	-0.0	-0.0	-0.0
0.38	-0.0	-0.0	-0.0	-2.862667322158813	8.615654945373535	-728.13818359375	-0.0	-0.0	-0.0	-0.0	-0.0	-0.0	-0.0	-0.0	-0.0	-0.0	-0.0	-0.0
0.3805	-0.0	-0.0	-0.0	-4.163028717041016	8.861015319824219	-728.4631958007812	-0.0	-0.0	-0.0	-0.0	-0.0	-0.0	-0.0	-0.0	-0.0	-0.0	-0.0	-0.0
0.381	-0.0	-0.0	-0.0	-4.951188087463379	9.380971908569336	-727.8156127929688	-0.0	-0.0	-0.0	-0.0	-0.0	-0.0	-0.0	-0.0	-0.0	-0.0	-0.0	-0.0
